<?xml version="1.0" encoding="UTF-8" standalone="no"?>
<!-- Created with Inkscape (http://www.inkscape.org/) -->

<svg
   xmlns:dc="http://purl.org/dc/elements/1.1/"
   xmlns:cc="http://creativecommons.org/ns#"
   xmlns:rdf="http://www.w3.org/1999/02/22-rdf-syntax-ns#"
   xmlns:svg="http://www.w3.org/2000/svg"
   xmlns="http://www.w3.org/2000/svg"
   xmlns:xlink="http://www.w3.org/1999/xlink"
   xmlns:sodipodi="http://sodipodi.sourceforge.net/DTD/sodipodi-0.dtd"
   xmlns:inkscape="http://www.inkscape.org/namespaces/inkscape"
   width="512"
   height="512"
   viewBox="0 0 135.46666 135.46667"
   version="1.1"
   id="svg8"
   inkscape:version="0.92.5 (2060ec1f9f, 2020-04-08)"
   sodipodi:docname="logo.svg"
   inkscape:export-filename="/home/lemonorange/skool/compSciA/unnamed-cat-game/src/resource/iconimage.png"
   inkscape:export-xdpi="96"
   inkscape:export-ydpi="96">
  <defs
     id="defs2">
    <linearGradient
       inkscape:collect="always"
       id="linearGradient873">
      <stop
         style="stop-color:#0048ff;stop-opacity:1"
         offset="0"
         id="stop869" />
      <stop
         style="stop-color:#ff00e5;stop-opacity:1"
         offset="1"
         id="stop871" />
    </linearGradient>
    <linearGradient
       inkscape:collect="always"
       xlink:href="#linearGradient873"
       id="linearGradient875"
       x1="104.82503"
       y1="434.26337"
       x2="435.05966"
       y2="105.76902"
       gradientUnits="userSpaceOnUse"
       gradientTransform="matrix(0.38052336,0,0,0.38052336,-35.569163,128.66413)" />
    <linearGradient
       inkscape:collect="always"
       xlink:href="#linearGradient873"
       id="linearGradient879"
       gradientUnits="userSpaceOnUse"
       x1="104.82503"
       y1="434.26337"
       x2="435.05966"
       y2="105.76902"
       gradientTransform="matrix(0.38052336,0,0,0.38052336,-37.852304,130.94728)" />
  </defs>
  <sodipodi:namedview
     id="base"
     pagecolor="#ffffff"
     bordercolor="#666666"
     borderopacity="1.0"
     inkscape:pageopacity="0.0"
     inkscape:pageshadow="2"
     inkscape:zoom="1.7721684"
     inkscape:cx="252.80113"
     inkscape:cy="273.07705"
     inkscape:document-units="mm"
     inkscape:current-layer="g845"
     showgrid="false"
     units="px"
     inkscape:snap-page="true"
     inkscape:snap-object-midpoints="true"
     inkscape:snap-center="true"
     inkscape:snap-bbox="true"
     inkscape:bbox-nodes="true"
     inkscape:bbox-paths="true"
     inkscape:snap-bbox-edge-midpoints="true"
     inkscape:snap-bbox-midpoints="true"
     inkscape:object-paths="true"
     inkscape:snap-intersection-paths="true"
     inkscape:snap-smooth-nodes="true"
     inkscape:snap-midpoints="true"
     inkscape:snap-text-baseline="true"
     inkscape:window-width="2560"
     inkscape:window-height="1385"
     inkscape:window-x="0"
     inkscape:window-y="27"
     inkscape:window-maximized="1" />
  <metadata
     id="metadata5">
    <rdf:RDF>
      <cc:Work
         rdf:about="">
        <dc:format>image/svg+xml</dc:format>
        <dc:type
           rdf:resource="http://purl.org/dc/dcmitype/StillImage" />
        <dc:title></dc:title>
      </cc:Work>
    </rdf:RDF>
  </metadata>
  <g
     inkscape:label="Layer 1"
     inkscape:groupmode="layer"
     id="layer1"
     transform="translate(0,-161.53335)">
    <g
       id="g845"
       transform="matrix(0.69531429,0,0,0.69531429,24.731747,72.071344)">
      <g
         id="g897"
         transform="matrix(1.0952609,0,0,1.0952609,-5.8913961,-21.536415)">
        <circle
           r="88.941345"
           cy="226.07811"
           cx="61.844818"
           id="path859"
           style="opacity:1;fill:#0f171a;fill-opacity:1;stroke:none;stroke-width:6.94854259;stroke-linecap:round;stroke-linejoin:round;stroke-miterlimit:4;stroke-dasharray:none;stroke-dashoffset:0;stroke-opacity:1" />
        <path
           inkscape:connector-curvature="0"
           style="color:#000000;font-style:normal;font-variant:normal;font-weight:normal;font-stretch:normal;font-size:medium;line-height:normal;font-family:sans-serif;font-variant-ligatures:normal;font-variant-position:normal;font-variant-caps:normal;font-variant-numeric:normal;font-variant-alternates:normal;font-feature-settings:normal;text-indent:0;text-align:start;text-decoration:none;text-decoration-line:none;text-decoration-style:solid;text-decoration-color:#000000;letter-spacing:normal;word-spacing:normal;text-transform:none;writing-mode:lr-tb;direction:ltr;text-orientation:mixed;dominant-baseline:auto;baseline-shift:baseline;text-anchor:start;white-space:normal;shape-padding:0;clip-rule:nonzero;display:inline;overflow:visible;visibility:visible;opacity:0.5;isolation:auto;mix-blend-mode:normal;color-interpolation:sRGB;color-interpolation-filters:linearRGB;solid-color:#000000;solid-opacity:1;vector-effect:none;fill:url(#linearGradient879);fill-opacity:1;fill-rule:nonzero;stroke:none;stroke-width:5.29166651;stroke-linecap:round;stroke-linejoin:miter;stroke-miterlimit:4;stroke-dasharray:none;stroke-dashoffset:0;stroke-opacity:1;color-rendering:auto;image-rendering:auto;shape-rendering:auto;text-rendering:auto;enable-background:accumulate"
           d="m 44.136359,167.57117 c -0.299331,0.005 -0.610287,0.051 -0.909687,0.15681 v 7.5e-4 c -1.480837,0.5231 -1.844617,1.54662 -2.076531,2.31881 0.0244,-0.0535 0.04843,-0.11352 0.07284,-0.16648 l -0.133035,0.35303 c 0.01691,-0.0569 0.04204,-0.12608 0.0602,-0.18655 -1.858088,4.07719 -3.669737,9.78039 -4.212511,13.54649 -0.556645,3.86235 -0.624987,8.17803 -0.129317,11.53907 0.194417,1.31842 0.219314,0.61192 0.02601,1.49608 -0.471111,2.15483 -0.544746,4.89749 -0.167967,7.06792 0.328715,1.89355 1.012554,3.87278 1.96059,5.46854 1.476229,2.48488 4.066109,5.3178 6.472611,6.8732 0.664645,0.42958 1.656254,0.94815 2.656232,1.45521 -0.353997,0.55529 -0.383762,0.61838 -1.025629,1.61128 -4.394611,6.79795 -6.180186,9.95499 -7.698908,13.68918 -3.094066,7.60756 -4.564454,16.99322 -3.517615,23.87561 0.817798,5.37656 3.603678,9.51818 8.051193,11.13253 1.257318,0.4564 2.611083,0.66341 4.306155,0.80267 l 0.02007,0.0922 2.063894,0.0661 c 4.422709,0.14527 15.416402,0.15462 19.183728,0.01 2.361726,-0.091 3.544716,-0.17568 4.652492,-0.4489 4.470457,-1.10265 8.317487,-5.00921 9.75983,-10.82782 l 0.03716,-0.14493 0.01933,-0.14864 c 0.973021,-7.42561 -0.218462,-14.64629 -2.850211,-21.7478 3.290077,1.62605 5.894269,4.26698 7.776204,7.51533 2.755598,4.75635 3.817856,10.78897 2.824941,16.26589 -1.636681,9.02793 -7.28794,15.79407 -14.807713,19.98268 -7.519773,4.18862 -16.882486,5.66558 -25.462363,3.89739 C 26.347271,278.01804 12.31513,251.9287 15.554753,227.77594 a 2.6460978,2.6460978 0 1 0 -5.244087,-0.70308 c -3.5739244,26.64505 11.887032,55.49342 39.708952,61.2271 9.880434,2.03624 20.432023,0.37434 29.107065,-4.45777 8.675038,-4.83211 15.499352,-12.96912 17.437928,-23.66231 1.227679,-6.7719 -0.03362,-13.95934 -3.45221,-19.86005 -3.200206,-5.52377 -8.420023,-9.93956 -15.179313,-11.40529 -1.788292,-3.64234 -3.903439,-7.25984 -6.247421,-10.8635 l -0.0022,-0.004 -0.0037,-0.004 c -0.159732,-0.24339 -0.259783,-0.40415 -0.40802,-0.63248 2.366772,-1.22815 4.385011,-2.64275 6.308362,-4.64431 0.700867,-0.72937 1.435757,-1.56761 1.955384,-2.29726 1.084846,-1.52328 2.042513,-3.54512 2.564077,-5.35557 0.151463,-0.52577 0.298049,-1.15831 0.341873,-1.85134 0.04383,-0.69304 0.02669,-1.42747 0,-2.73426 -0.06736,-3.29564 -0.06721,-5.6878 -0.0022,-10.72898 0.04046,-3.13691 0.0048,-4.31929 -0.200666,-5.63279 -0.293018,-1.87276 -0.801146,-4.14822 -1.349666,-6.06236 -0.398389,-1.39023 -1.069648,-3.29348 -1.730937,-5.02707 -0.330644,-0.8668 -0.655318,-1.67994 -0.945364,-2.35746 -0.290046,-0.67753 -0.417301,-1.06921 -0.866581,-1.73614 -0.406628,-0.60364 -1.267779,-1.14575 -1.984372,-1.24859 -0.716594,-0.10284 -1.210674,0.0531 -1.566684,0.18952 -0.712027,0.27285 -1.057238,0.57529 -1.427708,0.88516 -0.74094,0.61974 -1.408484,1.35219 -2.081729,2.12112 -0.673245,0.76894 -1.320127,1.56222 -1.830527,2.18504 -0.255198,0.31141 -0.47788,0.58153 -0.636927,0.76996 -0.159052,0.18843 -0.369473,0.37526 -0.116688,0.15236 l -0.230392,0.2029 -0.177628,0.24971 c -0.926772,1.30676 -1.871361,2.9295 -2.660692,4.46744 -0.486377,0.94766 -0.719501,1.75003 -1.035289,2.57373 -2.351003,-0.24433 -5.710446,-0.25282 -8.072001,0.0119 -1.510765,-3.95819 -3.993935,-7.65589 -7.642427,-11.37706 -0.08029,-0.0819 -0.459124,-0.784 -1.39872,-1.65438 -0.234897,-0.2176 -0.530043,-0.4757 -1.054613,-0.70085 -0.327859,-0.14071 -0.794301,-0.24769 -1.293186,-0.23931 z m 29.947634,7.06346 c 0.04681,0.12098 0.08357,0.20466 0.130805,0.3285 0.623015,1.63325 1.277592,3.51345 1.588239,4.5975 0.477169,1.66514 0.959327,3.84117 1.206975,5.42394 0.151266,0.96682 0.176586,1.65743 0.136749,4.74614 -0.06532,5.06372 -0.0647,7.55806 0.0037,10.90585 0.02642,1.29371 0.02951,1.97696 0.0097,2.29132 -0.01988,0.31436 -0.01912,0.27831 -0.146414,0.72017 -0.247298,0.85843 -1.330618,3.10897 -1.788905,3.75247 -0.150029,0.21067 -0.953664,1.17085 -1.461149,1.69897 -1.885657,1.96233 -3.342171,2.99894 -5.804469,4.13299 -0.459554,0.21166 -0.873115,0.41706 -1.221092,0.60572 -0.17399,0.0943 -0.324876,0.17806 -0.509844,0.29877 -0.09248,0.0603 -0.186719,0.11832 -0.362685,0.26904 -0.08798,0.0754 -0.197837,0.16685 -0.373091,0.38721 -0.175258,0.22037 -0.581935,0.55183 -0.581935,1.66182 0,0.001 0.04465,0.5124 0.07581,0.63842 0.03116,0.12602 0.05944,0.20396 0.08175,0.26607 0.04462,0.12422 0.074,0.18594 0.09811,0.23782 0.0482,0.10378 0.07738,0.15566 0.105535,0.20736 0.05631,0.10341 0.103639,0.18758 0.162019,0.28539 0.11676,0.19561 0.265267,0.43296 0.445182,0.71868 0.359838,0.57147 0.843323,1.3233 1.377167,2.13673 2.443535,3.75733 4.576981,7.45484 6.317285,11.11619 a 2.6460978,2.6460978 0 0 0 0.298026,0.63916 c 3.692827,7.97207 5.490321,15.77595 4.499392,23.64448 -1.079042,4.18435 -3.50524,6.26423 -5.847575,6.84198 -0.439736,0.10845 -1.308897,0.20938 -3.589701,0.29729 -3.335257,0.12854 -14.679807,0.12531 -18.804692,-0.0104 -2.959106,-0.0975 -3.428717,-0.16353 -4.759518,-0.64659 -2.615923,-0.94952 -3.981195,-2.72989 -4.623507,-6.95273 -0.81061,-5.32932 0.473482,-14.4144 3.187629,-21.08783 1.370558,-3.36988 2.896415,-6.08546 7.242577,-12.80848 1.360067,-2.10386 1.968451,-3.01142 2.376783,-3.75841 0.20417,-0.37349 0.692507,-0.6872 0.45336,-2.14044 -0.119572,-0.72663 -0.67135,-1.4361 -0.957252,-1.67742 -0.285907,-0.24132 -0.319773,-0.24128 -0.224452,-0.1702 -0.386852,-0.28847 -0.377917,-0.24621 -0.527679,-0.32999 -0.149759,-0.0838 -0.324739,-0.17882 -0.52545,-0.28539 -0.401422,-0.21313 -0.902948,-0.47146 -1.429192,-0.73652 -0.960875,-0.484 -2.251272,-1.20873 -2.371582,-1.28649 -0.755963,-0.48861 -4.123716,-4.00212 -4.794446,-5.13112 -0.420242,-0.70738 -1.103696,-2.56781 -1.295412,-3.6722 -0.133735,-0.77038 -0.05803,-4.20332 0.123374,-5.03302 0.218907,-1.00129 0.24406,-2.01857 0.04087,-3.39647 -0.382193,-2.59158 -0.349883,-6.67793 0.130805,-10.01326 0.311992,-2.16478 1.532303,-6.07038 2.801158,-9.42836 2.810329,3.05969 4.736127,5.92134 5.792574,8.85386 0.133123,0.36953 0.270971,0.71621 0.404306,1.0234 0.06667,0.1536 0.130505,0.29483 0.208843,0.4489 0.07834,0.15407 -0.0192,0.19104 0.52545,0.76996 0.420562,0.44704 1.063532,0.74686 1.484931,0.84354 0.421403,0.0967 0.693664,0.092 0.944619,0.0877 0.50191,-0.009 0.956521,-0.0629 1.68783,-0.1479 1.766302,-0.20552 5.938239,-0.20155 7.402371,-0.0178 0.499231,0.0626 0.918069,0.10467 1.318452,0.11891 0.20019,0.007 0.389512,0.0104 0.654025,-0.0134 0.264513,-0.0238 0.526477,0.25859 1.607563,-0.63693 0.947145,-0.78462 0.793166,-1.01244 0.905972,-1.30062 0.112807,-0.28817 0.187541,-0.55016 0.244517,-0.86137 -0.02252,0.123 0.493155,-1.37048 1.183188,-2.71495 0.682697,-1.33017 1.550157,-2.79491 2.244494,-3.77922 0.06967,-0.0832 0.191061,-0.19711 0.274989,-0.29654 0.20078,-0.23787 0.43054,-0.51698 0.685981,-0.82868 0.456411,-0.55694 1.003341,-1.21555 1.536957,-1.8335 z m -9.455111,6.94307 v 7.4e-4 c 0.07037,-0.0121 0.07389,0.006 0.115195,0.0149 -0.02995,-0.002 -0.08496,-0.008 -0.121143,-0.0111 0.0011,-2e-4 0.0048,-0.004 0.0059,-0.004 z m -1.617225,1.40838 c -0.01049,0.0518 -0.04909,0.0961 -0.05871,0.14864 0.0088,-0.0481 0.0058,-0.0425 0.03345,-0.11297 0.0011,-0.003 0.02497,-0.0328 0.02527,-0.0357 z m -14.095715,32.66778 c 0.0042,0.002 0.0028,0.0114 -0.0059,0.0275 -0.0071,0.013 -0.108445,0.16994 -0.118913,0.18803 0.05082,-0.15771 0.112174,-0.22111 0.124861,-0.21553 z"
           id="path877" />
        <path
           inkscape:connector-curvature="0"
           id="path826"
           d="m 46.4195,165.28802 c -0.299331,0.005 -0.610287,0.051 -0.909687,0.15681 v 7.5e-4 c -1.480837,0.5231 -1.844617,1.54662 -2.076531,2.31881 0.0244,-0.0535 0.04843,-0.11352 0.07284,-0.16648 l -0.133035,0.35303 c 0.01691,-0.0569 0.04204,-0.12608 0.0602,-0.18655 -1.858088,4.07719 -3.669737,9.78039 -4.212511,13.54649 -0.556645,3.86235 -0.624987,8.17803 -0.129317,11.53907 0.194417,1.31842 0.219314,0.61192 0.02601,1.49608 -0.471111,2.15483 -0.544746,4.89749 -0.167967,7.06792 0.328715,1.89355 1.012554,3.87278 1.96059,5.46854 1.476229,2.48488 4.066109,5.3178 6.472611,6.8732 0.664645,0.42958 1.656254,0.94815 2.656232,1.45521 -0.353997,0.55529 -0.383762,0.61838 -1.025629,1.61128 -4.394611,6.79795 -6.180186,9.95499 -7.698908,13.68918 -3.094066,7.60756 -4.564454,16.99322 -3.517615,23.87561 0.817798,5.37656 3.603678,9.51818 8.051193,11.13253 1.257318,0.4564 2.611083,0.66341 4.306155,0.80267 l 0.02007,0.0922 2.063894,0.0661 c 4.422709,0.14527 15.416402,0.15462 19.183728,0.01 2.361726,-0.091 3.544716,-0.17568 4.652492,-0.4489 4.470457,-1.10265 8.317487,-5.00921 9.75983,-10.82782 l 0.03716,-0.14493 0.01933,-0.14864 c 0.973021,-7.42561 -0.218462,-14.64629 -2.850211,-21.7478 3.290077,1.62605 5.894269,4.26698 7.776204,7.51533 2.755598,4.75635 3.817856,10.78897 2.824941,16.26589 -1.636681,9.02793 -7.28794,15.79407 -14.807713,19.98268 -7.519773,4.18862 -16.882486,5.66558 -25.462363,3.89739 -24.741081,-5.09878 -38.773222,-31.18812 -35.533599,-55.34088 a 2.6460978,2.6460978 0 1 0 -5.244087,-0.70308 c -3.5739253,26.64505 11.887032,55.49342 39.708952,61.2271 9.880434,2.03624 20.432023,0.37434 29.107065,-4.45777 8.675038,-4.83211 15.499352,-12.96912 17.437928,-23.66231 1.227678,-6.7719 -0.03362,-13.95934 -3.45221,-19.86005 -3.200206,-5.52377 -8.420023,-9.93956 -15.179313,-11.40529 -1.788292,-3.64234 -3.903439,-7.25984 -6.247421,-10.8635 l -0.0022,-0.004 -0.0037,-0.004 c -0.159732,-0.24339 -0.259783,-0.40415 -0.40802,-0.63248 2.366772,-1.22815 4.385011,-2.64275 6.308362,-4.64431 0.700867,-0.72937 1.435757,-1.56761 1.955384,-2.29726 1.084846,-1.52328 2.042513,-3.54512 2.564077,-5.35557 0.151463,-0.52577 0.298049,-1.15831 0.341873,-1.85134 0.04383,-0.69304 0.02669,-1.42747 0,-2.73426 -0.06736,-3.29564 -0.06721,-5.6878 -0.0022,-10.72898 0.04046,-3.13691 0.0048,-4.31929 -0.200666,-5.63279 -0.293018,-1.87276 -0.801146,-4.14822 -1.349666,-6.06236 -0.398389,-1.39023 -1.069648,-3.29348 -1.730937,-5.02707 -0.330644,-0.8668 -0.655318,-1.67994 -0.945364,-2.35746 -0.290046,-0.67753 -0.417301,-1.06921 -0.866581,-1.73614 -0.406628,-0.60364 -1.267779,-1.14575 -1.984372,-1.24859 -0.716594,-0.10284 -1.210674,0.0531 -1.566684,0.18952 -0.712027,0.27285 -1.057238,0.57529 -1.427708,0.88516 -0.74094,0.61974 -1.408484,1.35219 -2.081729,2.12112 -0.673245,0.76894 -1.320127,1.56222 -1.830527,2.18504 -0.255198,0.31141 -0.47788,0.58153 -0.636927,0.76996 -0.159052,0.18843 -0.369473,0.37526 -0.116688,0.15236 l -0.230392,0.2029 -0.177628,0.24971 c -0.926772,1.30676 -1.871361,2.9295 -2.660692,4.46744 -0.486377,0.94766 -0.719501,1.75003 -1.035289,2.57373 -2.351003,-0.24433 -5.710446,-0.25282 -8.072001,0.0119 -1.510765,-3.95819 -3.993935,-7.65589 -7.642427,-11.37706 -0.08029,-0.0819 -0.459124,-0.784 -1.39872,-1.65438 -0.234897,-0.2176 -0.530043,-0.4757 -1.054613,-0.70085 -0.327859,-0.14071 -0.794301,-0.24769 -1.293186,-0.23931 z m 29.947634,7.06346 c 0.04681,0.12098 0.08357,0.20466 0.130805,0.3285 0.623015,1.63325 1.277592,3.51345 1.588239,4.5975 0.477169,1.66514 0.959327,3.84117 1.206975,5.42394 0.151266,0.96682 0.176586,1.65743 0.136749,4.74614 -0.06532,5.06372 -0.0647,7.55806 0.0037,10.90585 0.02642,1.29371 0.02951,1.97696 0.0097,2.29132 -0.01988,0.31436 -0.01912,0.27831 -0.146414,0.72017 -0.247298,0.85843 -1.330618,3.10897 -1.788905,3.75247 -0.150029,0.21067 -0.953664,1.17085 -1.461149,1.69897 -1.885657,1.96233 -3.342171,2.99894 -5.804469,4.13299 -0.459554,0.21166 -0.873115,0.41706 -1.221092,0.60572 -0.17399,0.0943 -0.324876,0.17806 -0.509844,0.29877 -0.09248,0.0603 -0.186719,0.11832 -0.362685,0.26904 -0.08798,0.0754 -0.197837,0.16685 -0.373091,0.38721 -0.175258,0.22037 -0.581935,0.55183 -0.581935,1.66182 0,0.001 0.04465,0.5124 0.07581,0.63842 0.03116,0.12602 0.05944,0.20396 0.08175,0.26607 0.04462,0.12422 0.074,0.18594 0.09811,0.23782 0.0482,0.10378 0.07738,0.15566 0.105535,0.20736 0.05631,0.10341 0.103639,0.18758 0.162019,0.28539 0.11676,0.19561 0.265267,0.43296 0.445182,0.71868 0.359838,0.57147 0.843323,1.3233 1.377167,2.13673 2.443535,3.75733 4.576981,7.45484 6.317285,11.11619 a 2.6460978,2.6460978 0 0 0 0.298026,0.63916 c 3.692827,7.97207 5.490321,15.77595 4.499392,23.64448 -1.079042,4.18435 -3.50524,6.26423 -5.847575,6.84198 -0.439736,0.10845 -1.308897,0.20938 -3.589701,0.29729 -3.335257,0.12854 -14.679807,0.12531 -18.804692,-0.0104 -2.959106,-0.0975 -3.428717,-0.16353 -4.759518,-0.64659 -2.615923,-0.94952 -3.981195,-2.72989 -4.623507,-6.95273 -0.81061,-5.32932 0.473482,-14.4144 3.187629,-21.08783 1.370558,-3.36988 2.896415,-6.08546 7.242577,-12.80848 1.360067,-2.10386 1.968451,-3.01142 2.376783,-3.75841 0.20417,-0.37349 0.692507,-0.6872 0.45336,-2.14044 -0.119572,-0.72663 -0.67135,-1.4361 -0.957252,-1.67742 -0.285907,-0.24132 -0.319773,-0.24128 -0.224452,-0.1702 -0.386852,-0.28847 -0.377917,-0.24621 -0.527679,-0.32999 -0.149759,-0.0838 -0.324739,-0.17882 -0.52545,-0.28539 -0.401422,-0.21313 -0.902948,-0.47146 -1.429192,-0.73652 -0.960875,-0.484 -2.251272,-1.20873 -2.371582,-1.28649 -0.755963,-0.48861 -4.123716,-4.00212 -4.794446,-5.13112 -0.420242,-0.70738 -1.103696,-2.56781 -1.295412,-3.6722 -0.133735,-0.77038 -0.05803,-4.20332 0.123374,-5.03302 0.218907,-1.00129 0.24406,-2.01857 0.04087,-3.39647 -0.382193,-2.59158 -0.349883,-6.67793 0.130805,-10.01326 0.311992,-2.16478 1.532303,-6.07038 2.801158,-9.42836 2.810329,3.05969 4.736127,5.92134 5.792574,8.85386 0.133123,0.36953 0.270971,0.71621 0.404306,1.0234 0.06667,0.1536 0.130505,0.29483 0.208843,0.4489 0.07834,0.15407 -0.0192,0.19104 0.52545,0.76996 0.420562,0.44704 1.063532,0.74686 1.484931,0.84354 0.421403,0.0967 0.693664,0.092 0.944619,0.0877 0.50191,-0.009 0.956521,-0.0629 1.68783,-0.1479 1.766302,-0.20552 5.938239,-0.20155 7.402371,-0.0178 0.499231,0.0626 0.918069,0.10467 1.318452,0.11891 0.20019,0.007 0.389512,0.0104 0.654025,-0.0134 0.264513,-0.0238 0.526477,0.25859 1.607563,-0.63693 0.947145,-0.78462 0.793166,-1.01244 0.905972,-1.30062 0.112807,-0.28817 0.187541,-0.55016 0.244517,-0.86137 -0.02252,0.123 0.493155,-1.37048 1.183188,-2.71495 0.682697,-1.33017 1.550157,-2.79491 2.244494,-3.77922 0.06967,-0.0832 0.191061,-0.19711 0.274989,-0.29654 0.20078,-0.23787 0.43054,-0.51698 0.685981,-0.82868 0.456411,-0.55694 1.003341,-1.21555 1.536957,-1.8335 z m -9.455111,6.94307 v 7.4e-4 c 0.07037,-0.0121 0.07389,0.006 0.115195,0.0149 -0.02995,-0.002 -0.08496,-0.008 -0.121143,-0.0111 0.0011,-2e-4 0.0048,-0.004 0.0059,-0.004 z m -1.617225,1.40838 c -0.01049,0.0518 -0.04909,0.0961 -0.05871,0.14864 0.0088,-0.0481 0.0058,-0.0425 0.03345,-0.11297 0.0011,-0.003 0.02497,-0.0328 0.02527,-0.0357 z m -14.095715,32.66778 c 0.0042,0.002 0.0028,0.0114 -0.0059,0.0275 -0.0071,0.013 -0.108445,0.16994 -0.118913,0.18803 0.05082,-0.15771 0.112174,-0.22111 0.124861,-0.21553 z"
           style="color:#000000;font-style:normal;font-variant:normal;font-weight:normal;font-stretch:normal;font-size:medium;line-height:normal;font-family:sans-serif;font-variant-ligatures:normal;font-variant-position:normal;font-variant-caps:normal;font-variant-numeric:normal;font-variant-alternates:normal;font-feature-settings:normal;text-indent:0;text-align:start;text-decoration:none;text-decoration-line:none;text-decoration-style:solid;text-decoration-color:#000000;letter-spacing:normal;word-spacing:normal;text-transform:none;writing-mode:lr-tb;direction:ltr;text-orientation:mixed;dominant-baseline:auto;baseline-shift:baseline;text-anchor:start;white-space:normal;shape-padding:0;clip-rule:nonzero;display:inline;overflow:visible;visibility:visible;opacity:1;isolation:auto;mix-blend-mode:normal;color-interpolation:sRGB;color-interpolation-filters:linearRGB;solid-color:#000000;solid-opacity:1;vector-effect:none;fill:url(#linearGradient875);fill-opacity:1;fill-rule:nonzero;stroke:none;stroke-width:5.29166651;stroke-linecap:round;stroke-linejoin:miter;stroke-miterlimit:4;stroke-dasharray:none;stroke-dashoffset:0;stroke-opacity:1;color-rendering:auto;image-rendering:auto;shape-rendering:auto;text-rendering:auto;enable-background:accumulate" />
      </g>
    </g>
  </g>
</svg>
